<svg xmlns="http://www.w3.org/2000/svg"  viewBox="0 0 48 48" width="240px" height="240px"><linearGradient id="I5kjl-02J_JRI_ErZXpEra" x1=".015" x2="47.971" y1="24" y2="24" gradientUnits="userSpaceOnUse"><stop offset="0" stop-color="#41474a"/><stop offset="1" stop-color="#323538"/></linearGradient><path fill="url(#I5kjl-02J_JRI_ErZXpEra)" d="M47.678,23.293L30.707,6.322C30.512,6.127,30.256,6.029,30,6.029V6H18v0.029	c-0.256,0-0.512,0.098-0.707,0.293L0.308,23.308c-0.391,0.391-0.391,1.023,0,1.414l16.985,16.985C17.488,41.902,17.744,42,18,42h12	v-0.029c0.256,0,0.512-0.098,0.707-0.293l16.971-16.971C48.068,24.316,48.068,23.684,47.678,23.293z M44.557,23h-9.172l-9.971-9.971	L30,8.443L44.557,23z M33.571,24.015l-9.557,9.557L14.443,24L24,14.443L33.571,24.015z M24,11.615L20.385,8h7.23L24,11.615z M18,8.443l4.586,4.586L12.615,23H3.443L18,8.443z M3.414,25h9.201l9.985,9.985L18,39.586L3.414,25z M24.015,36.399L27.615,40	h-7.201L24.015,36.399z M30,39.557l-4.571-4.571L35.414,25h9.143L30,39.557z"/></svg>